<?xml version="1.0" encoding="UTF-8" standalone="no"?>
<!-- Created with Inkscape (http://www.inkscape.org/) -->

<svg
   width="210mm"
   height="297mm"
   viewBox="0 0 210 297"
   version="1.1"
   id="svg1"
   xml:space="preserve"
   inkscape:version="1.3.2 (091e20e, 2023-11-25, custom)"
   sodipodi:docname="prabandhak.svg"
   xmlns:inkscape="http://www.inkscape.org/namespaces/inkscape"
   xmlns:sodipodi="http://sodipodi.sourceforge.net/DTD/sodipodi-0.dtd"
   xmlns="http://www.w3.org/2000/svg"
   xmlns:svg="http://www.w3.org/2000/svg"><sodipodi:namedview
     id="namedview1"
     pagecolor="#ffffff"
     bordercolor="#000000"
     borderopacity="0.25"
     inkscape:showpageshadow="2"
     inkscape:pageopacity="0.0"
     inkscape:pagecheckerboard="0"
     inkscape:deskcolor="#d1d1d1"
     inkscape:document-units="mm"
     inkscape:zoom="2.043487"
     inkscape:cx="280.40305"
     inkscape:cy="194.52044"
     inkscape:window-width="1920"
     inkscape:window-height="1046"
     inkscape:window-x="-11"
     inkscape:window-y="-11"
     inkscape:window-maximized="1"
     inkscape:current-layer="layer1" /><defs
     id="defs1" /><g
     inkscape:label="Layer 1"
     inkscape:groupmode="layer"
     id="layer1"><path
       style="fill:#000000;stroke-width:0.384356"
       d="m 19.217573,46.590999 c -0.388328,-0.308734 -0.718474,-0.594941 -0.733657,-0.636013 -0.01518,-0.04107 0.411029,-0.369187 0.947139,-0.72914 L 20.4058,44.571381 20.068826,44.322495 C 19.88349,44.185607 19.148381,43.49723 18.435252,42.792767 l -1.2966,-1.280842 v -2.512613 -2.51261 h -0.610165 -0.610164 v -0.8644 -0.8644 h 11.084654 11.084658 v 0.8644 0.8644 h -0.710962 -0.710958 l -0.02633,5.334507 -0.02633,5.334504 -1.144058,-0.519414 -1.144061,-0.519411 v -1.204845 -1.204848 l -0.58474,0.445038 c -1.007888,0.767093 -1.789982,0.873421 -2.822012,0.383668 -1.162249,-0.551551 -2.898279,-2.792747 -2.898279,-3.741652 0,-1.15216 2.415955,-3.198046 3.792598,-3.211653 l 0.427707,-0.0042 0.983009,0.674495 c 0.540654,0.370972 1.009721,0.674498 1.042365,0.674498 0.03263,0 0.05935,-0.549148 0.05935,-1.220329 v -1.22033 h -4.220302 -4.220305 v 5.334753 5.334754 l -1.144053,-0.5363 -1.144059,-0.536269 -0.02907,-1.043293 -0.02906,-1.043295 -0.81958,0.744774 c -0.858891,0.780495 -2.582744,2.279365 -2.71677,2.362198 -0.04297,0.02656 -0.395848,-0.204316 -0.784176,-0.513053 z m 12.982053,-3.713474 c 0.190126,-0.06468 0.425401,-0.171699 0.522839,-0.237824 l 0.177161,-0.120226 -1.123014,-1.046204 -1.123018,-1.046209 -0.258944,0.241664 c -0.321517,0.300063 -0.645933,0.91879 -0.645933,1.231929 0,0.791446 1.379603,1.34132 2.450909,0.97687 z M 21.433169,42.520647 c 0.68142,-0.265808 1.467506,-0.824508 1.804148,-1.282268 l 0.308063,-0.418901 v -2.166386 -2.16639 h -2.084729 -2.084729 v 2.324045 c 0,1.278228 0.02961,2.607403 0.06581,2.953723 l 0.06581,0.629678 0.264692,0.143876 c 0.360382,0.195887 1.134979,0.187785 1.660927,-0.01737 z m 12.574735,-0.949566 0.317047,-0.394525 V 40.56884 39.961123 l -0.483046,-0.186377 c -0.617033,-0.23807 -1.660586,-0.236771 -2.210568,0.0027 l -0.405499,0.1766 1.07801,1.065038 c 0.72132,0.712641 1.129129,1.045424 1.232509,1.005755 0.08497,-0.03259 0.297169,-0.236825 0.471547,-0.453813 z m 24.545671,5.060867 -1.144062,-0.509875 v -1.215469 -1.215471 l -0.418355,0.358097 c -1.390522,1.190237 -2.833478,1.01162 -4.275857,-0.529285 -0.853288,-0.911572 -1.61082,-2.195689 -1.61082,-2.730551 0,-1.138292 2.382053,-3.167693 3.771202,-3.212893 l 0.449105,-0.01461 0.980168,0.682735 c 0.539093,0.375507 1.008157,0.682738 1.042365,0.682738 0.03421,0 0.06219,-0.549148 0.06219,-1.220329 v -1.220329 h -4.118608 -4.118614 v 5.288091 c 0,3.800005 -0.03171,5.28809 -0.112632,5.28809 -0.06195,0 -0.588217,-0.213486 -1.169482,-0.474414 l -1.056848,-0.474418 v -0.999469 -0.99947 l -0.651651,0.446137 c -1.379084,0.944158 -3.09148,1.293122 -4.026279,0.820507 -0.139829,-0.0707 -0.838687,-0.693812 -1.553016,-1.384703 l -1.298785,-1.256166 0.0023,-0.296146 c 0.0031,-0.441867 0.454231,-1.129087 1.049953,-1.599981 0.290669,-0.22976 0.528489,-0.451917 0.528489,-0.493685 0,-0.04176 -0.251691,-0.273269 -0.559318,-0.514456 -1.114087,-0.873471 -1.919896,-1.644054 -2.086622,-1.995405 l -0.170212,-0.358693 0.180029,-0.4714 c 0.335027,-0.877261 1.599154,-1.896453 2.858788,-2.304877 l 0.527744,-0.171119 0.53704,0.289354 c 0.661104,0.356198 1.865839,1.471441 1.992569,1.844558 0.323462,0.952325 -1.177961,2.348801 -2.721918,2.531658 l -0.515205,0.06102 0.232788,0.248936 c 0.397389,0.424955 0.511758,0.442435 1.157603,0.176919 0.33033,-0.135801 0.739112,-0.247998 0.908405,-0.249328 l 0.307811,-0.0023 0.700338,0.70575 0.700338,0.705746 -0.296288,0.06609 c -1.067786,0.238189 -2.21154,0.804106 -2.83769,1.404066 l -0.458574,0.439392 v 0.330334 c 0,0.229518 0.09072,0.421062 0.29726,0.627599 l 0.297257,0.297257 h 0.410784 c 1.213799,0 3.275156,-1.384441 4.17572,-2.804489 l 0.310459,-0.489539 V 38.602486 36.48682 h -0.696617 -0.696618 l -0.360475,-0.864401 -0.360472,-0.8644 h 10.819723 10.819726 v 0.8644 0.864401 h -3.305059 -3.305058 v 1.024319 1.024323 l 0.262676,-0.206618 c 0.351293,-0.276329 1.191498,-0.581034 1.847643,-0.670059 l 0.534059,-0.07246 0.44423,0.260335 c 0.522974,0.306482 2.097986,1.940262 2.666144,2.765627 l 0.397739,0.577794 -0.005,0.528343 c -0.0035,0.381296 -0.0799,0.656095 -0.274022,0.987345 -0.377949,0.644921 -1.465979,1.629202 -2.214273,2.00313 l -0.632438,0.316033 -0.223245,-0.17587 c -0.122783,-0.09673 -0.52184,-0.448078 -0.886797,-0.780776 l -0.663555,-0.60491 0.98342,-0.482451 c 1.10174,-0.540496 1.595471,-1.000755 1.884011,-1.756286 0.515555,-1.349957 -0.731325,-2.072449 -2.243638,-1.300064 -0.707767,0.361483 -1.126957,0.728323 -1.533179,1.341716 l -0.292898,0.442275 -0.05085,2.716687 -0.05085,2.716685 z m -2.752379,-4.010596 c 0.292487,-0.157981 0.774012,-0.532528 1.070058,-0.832326 l 0.538259,-0.545081 V 40.602294 39.960647 L 56.87562,39.782025 c -0.732236,-0.244976 -1.635079,-0.23127 -2.229712,0.03386 -0.934169,0.416507 -1.812629,1.458088 -1.812629,2.14922 0,0.343107 0.450792,0.788248 0.897663,0.886417 0.149503,0.03282 0.317581,0.07769 0.373517,0.09967 0.28528,0.112086 1.212165,-0.06809 1.696737,-0.329823 z M 41.237262,37.699683 c 0.85335,-0.387089 1.481276,-1.032464 1.353335,-1.390945 -0.0633,-0.177365 -0.770053,-0.159899 -1.225206,0.03029 -0.63509,0.265359 -1.14218,0.87047 -1.14218,1.362968 0,0.276236 0.402014,0.275325 1.014051,-0.0023 z m -2.750989,-4.865835 c -0.360671,-0.360675 -0.602027,-0.689476 -0.602027,-0.820153 0,-0.266359 0.926128,-1.195196 1.280354,-1.284101 0.447693,-0.112363 1.56708,0.835758 1.56708,1.327314 0,0.4152 -1.011391,1.378972 -1.447112,1.378972 -0.107946,0 -0.467176,-0.270913 -0.798295,-0.602032 z"
       id="path2" /><path
       style="fill:#000000"
       d="m 24.243219,85.00297 c -1.010336,-0.80325 -1.869295,-1.54789 -1.908798,-1.65475 -0.0395,-0.10686 1.069398,-0.96054 2.464225,-1.89705 l 2.536051,-1.70276 -0.876726,-0.64754 C 25.975772,78.74472 24.063198,76.95373 22.207808,75.12089 L 18.83437,71.78845 v -6.53721 -6.5372 h -1.5875 -1.5875 v -2.24896 -2.24896 h 28.83958 l 0.172527,4.49792 H 41.58851 v 13.87973 13.87974 l -2.976565,-1.39525 -2.976563,-1.39524 -0.07562,-2.7144 -0.07562,-2.7144 -2.132349,1.93772 c -2.234625,2.03066 -6.719672,5.93036 -7.068375,6.14587 -0.111794,0.0691 -1.0299,-0.53158 -2.040235,-1.33484 z M 30.007662,74.4129 c 1.772888,-0.69157 3.818095,-2.14517 4.693954,-3.33615 l 0.801505,-1.08988 v -5.63641 -5.63642 h -5.423959 -5.423958 v 6.0466 c 0,3.32564 0.07705,6.78383 0.171232,7.68487 l 0.171233,1.63827 0.688663,0.37433 c 0.937627,0.50965 2.952941,0.48857 4.32133,-0.0452 z"
       id="path3"
       sodipodi:nodetypes="csscssccccccccccccccccssccsscccccsscsss" /><path
       style="fill:#000000;stroke-width:0.332249"
       d="m 17.660661,24.464843 -1.098844,-0.224547 v -5.318407 -5.318408 l 0.791168,-0.211974 0.791168,-0.211974 1.62629,-0.0078 c 1.14129,-0.0055 1.724067,0.02683 1.954152,0.108315 0.488132,0.17287 3.282441,2.945852 3.363815,3.338142 0.154344,0.744068 -0.408004,1.973657 -1.314913,2.875093 -1.177139,1.170034 -2.631744,1.584809 -4.310697,1.229179 -0.338427,-0.07168 -0.624509,-0.130335 -0.635739,-0.130335 -0.01123,0 -0.03103,0.921884 -0.04399,2.048629 l -0.02357,2.04863 z m 3.215436,-4.963365 c 0.71423,-0.326985 1.058026,-0.610918 1.414534,-1.16823 0.565733,-0.884384 0.818979,-1.936565 0.642831,-2.67083 -0.24038,-1.002018 -1.315987,-1.326439 -3.382788,-1.020306 l -0.703261,0.104167 -0.02334,2.539614 -0.02334,2.539614 0.781078,-0.04454 c 0.593049,-0.03381 0.904625,-0.101097 1.294296,-0.279494 z m 6.828004,4.972995 -0.98896,-0.216797 V 20.44106 16.624444 l 0.153838,0.04675 c 0.17276,0.0525 1.755698,0.404633 1.818956,0.404633 0.02238,0 0.05247,0.23911 0.06686,0.531354 l 0.02617,0.531354 0.439538,-0.588344 c 0.500156,-0.669484 1.082323,-1.089717 1.509632,-1.089717 0.158653,0 0.54809,0.09772 0.865416,0.217166 0.67837,0.255338 1.976376,0.917531 1.976376,1.008272 0,0.03468 -0.239857,0.40682 -0.533017,0.826986 l -0.533014,0.763939 -0.368035,-0.227843 c -0.687529,-0.425634 -0.96729,-0.51894 -1.561631,-0.520842 l -0.578242,-0.0019 -0.320401,0.244382 c -0.17622,0.13441 -0.45005,0.431098 -0.60851,0.659306 l -0.288109,0.414925 -0.04395,2.423176 -0.04395,2.423177 z m 18.438612,-0.04888 C 45.243875,24.189107 44.564289,23.937969 43.856874,23.580867 L 43.32967,23.314735 v -5.238639 -5.23864 l 0.112112,0.04302 c 0.06166,0.02366 0.516582,0.133329 1.010937,0.243705 l 0.898826,0.200684 v 1.955584 1.955583 l 0.565192,-0.379003 c 0.310855,-0.208451 0.716329,-0.403852 0.901052,-0.434224 0.418266,-0.06877 1.250641,0.141586 1.786336,0.451442 0.956584,0.553307 2.019306,1.538264 2.351575,2.179502 0.306703,0.591895 0.375983,1.657458 0.152223,2.341234 -0.497363,1.519853 -1.56179,2.6727 -2.829129,3.064141 -0.719194,0.222137 -1.19255,0.214705 -2.136081,-0.03354 z m 1.315131,-1.289375 c 1.164762,-0.620815 1.934521,-1.98193 1.935913,-3.423161 9.97e-4,-1.068392 -0.335691,-1.681517 -0.991001,-1.804453 -0.625704,-0.117383 -1.636529,0.553205 -2.625872,1.74202 l -0.425339,0.511098 v 1.607075 c 0,0.883891 0.02967,1.63785 0.06593,1.675465 0.03626,0.03761 0.387915,0.04886 0.781451,0.02498 l 0.715521,-0.0434 z m 15.167541,1.287229 -0.87908,-0.194347 -0.0229,-3.796402 -0.0229,-3.796402 0.11082,0.0035 c 0.0609,0.0019 0.52618,0.09367 1.03385,0.203859 l 0.92303,0.200336 0.0271,0.321532 0.0272,0.321533 0.45112,-0.356595 c 0.61365,-0.485062 1.22599,-0.78201 1.73753,-0.842594 l 0.42716,-0.05059 0.42308,0.247076 c 0.52131,0.304439 2.23457,1.993304 2.44818,2.413333 l 0.15648,0.307676 0.0422,2.61525 0.0422,2.61525 -0.16597,-0.004 c -0.0913,-0.0022 -0.54177,-0.0933 -1.00109,-0.202452 l -0.83512,-0.198458 -0.044,-2.865232 -0.044,-2.865234 -0.16746,-0.184895 c -0.43572,-0.481073 -1.5737,0.01886 -2.84337,1.249137 l -0.63733,0.617555 v 2.226786 2.226787 l -0.15384,-0.009 c -0.0846,-0.005 -0.54942,-0.0965 -1.03291,-0.203392 z m 11.61603,0.02993 c -1.35875,-0.333828 -2.49956,-1.132728 -3.01437,-2.110948 l -0.25031,-0.475633 6.6e-4,-0.879076 c 0.001,-1.403659 0.42346,-2.397302 1.49143,-3.507636 0.64593,-0.67155 1.20485,-1.008939 1.78529,-1.077684 l 0.43848,-0.05193 0.47738,0.218553 c 0.26256,0.120204 0.65279,0.345639 0.86717,0.500968 l 0.38978,0.282415 0.0235,-2.253516 0.0235,-2.253517 0.15234,0.04264 c 0.0838,0.02345 0.53804,0.128047 1.00944,0.232434 l 0.8571,0.189795 v 5.391884 5.391881 l -0.81314,0.18394 c -0.89241,0.201869 -1.96003,0.354547 -2.43944,0.348859 -0.16922,-0.002 -0.61864,-0.08005 -0.9987,-0.173428 z m 1.51862,-1.368889 0.66683,-0.338617 0.0234,-2.253488 0.0234,-2.25349 -0.33112,-0.130481 c -0.18211,-0.07177 -0.52076,-0.158126 -0.75255,-0.191913 l -0.42143,-0.06143 -0.39655,0.191969 c -0.99339,0.480891 -1.86272,2.360892 -1.7719,3.831906 0.0485,0.785285 0.24643,1.150235 0.77169,1.422765 l 0.39357,0.204206 0.56387,-0.0414 c 0.42593,-0.03128 0.727,-0.124241 1.23071,-0.380021 z m 6.46873,1.506781 c -0.0483,-0.01691 -0.4736,-0.115924 -0.945,-0.220045 l -0.8571,-0.18931 v -5.618873 -5.618868 l 0.10988,0.0024 c 0.0604,0.0013 0.50547,0.09121 0.98896,0.199788 l 0.87908,0.197413 0.044,2.184091 0.0439,2.184091 0.43954,-0.364937 c 1.08833,-0.903611 1.95965,-1.098771 2.72991,-0.611451 0.53001,0.335325 1.892,1.647914 2.25829,2.176385 l 0.26729,0.385626 0.044,2.669162 c 0.0242,1.46804 0.0201,2.669163 -0.009,2.669163 -0.0441,0 -0.65083,-0.134257 -1.79606,-0.397434 l -0.19779,-0.04545 v -2.771783 -2.771779 l -0.13033,-0.252037 c -0.0844,-0.163216 -0.22696,-0.27326 -0.40453,-0.31226 l -0.27419,-0.06022 -0.66858,0.33043 c -0.49631,0.245288 -0.87907,0.534061 -1.48549,1.120713 l -0.8169,0.790283 v 2.184769 c 0,1.201623 -0.0297,2.181647 -0.0659,2.17783 -0.0363,-0.0038 -0.10549,-0.02077 -0.15383,-0.03768 z m -45.454011,-0.20082 c -0.922517,-0.513937 -2.369283,-2.25613 -2.537337,-3.055458 -0.178576,-0.849374 1.202106,-1.538232 3.994969,-1.993192 l 1.228609,-0.200142 3.65e-4,-0.379386 c 4.99e-4,-0.499149 -0.109504,-0.684062 -0.47955,-0.806188 l -0.305457,-0.100809 -0.728132,0.137041 c -0.400473,0.07537 -1.143412,0.256024 -1.650976,0.401446 -0.507565,0.145423 -0.970631,0.264405 -1.029037,0.264405 -0.09117,0 -0.730279,-0.989794 -0.863828,-1.337819 -0.03396,-0.08849 0.237453,-0.178416 1.077483,-0.357013 1.392848,-0.296129 2.602586,-0.502857 2.942631,-0.502857 0.37355,0 0.864644,0.376246 1.969655,1.509027 l 0.97637,1.000908 0.06378,0.510498 c 0.0579,0.463399 -0.02534,5.067062 -0.09162,5.067062 -0.02318,0 -0.807811,-0.176074 -1.771069,-0.397434 l -0.197792,-0.04545 v -0.35097 -0.350967 l -0.502805,0.40954 c -0.877193,0.714484 -1.528588,0.894016 -2.096271,0.577758 z M 37.867678,22.5885 c 0.294099,-0.118792 0.77273,-0.369331 1.063624,-0.556754 l 0.528898,-0.340769 7.64e-4,-0.63733 c 5.98e-4,-0.488739 -0.02799,-0.63733 -0.122585,-0.63733 -0.193142,0 -1.886915,0.606511 -2.352157,0.842267 -1.045863,0.529978 -1.346127,1.152428 -0.733115,1.519752 0.251619,0.150772 0.984698,0.06458 1.614566,-0.189836 z m 17.332504,1.82043 c -0.403227,-0.174902 -1.619797,-1.431569 -2.098651,-2.16782 -0.213284,-0.327926 -0.401437,-0.735412 -0.426764,-0.924246 l -0.0453,-0.337738 0.240704,-0.286062 c 0.308667,-0.36683 1.108729,-0.769583 1.962772,-0.988065 0.76917,-0.196769 2.565652,-0.519388 2.892182,-0.519388 h 0.21957 l -0.0429,-0.446873 c -0.0286,-0.298167 -0.10584,-0.509779 -0.23197,-0.635909 l -0.18904,-0.189035 -0.51055,0.01174 c -0.2808,0.0065 -1.061622,0.159651 -1.735154,0.340436 -0.673532,0.180785 -1.323498,0.344906 -1.44437,0.364715 l -0.219809,0.03602 -0.373607,-0.650386 c -0.205483,-0.357713 -0.373607,-0.689777 -0.373607,-0.737921 0,-0.09639 0.703118,-0.263704 2.5127,-0.597922 1.626717,-0.300444 1.675237,-0.29675 2.303317,0.175385 0.64837,0.48739 2.02217,1.918388 2.14203,2.231217 0.0774,0.202089 0.0885,5.460902 0.0115,5.460902 -0.0533,0 -1.65516,-0.359091 -1.80502,-0.404633 -0.11274,-0.03426 -0.15384,-0.139747 -0.15384,-0.394902 V 23.40029 l -0.57956,0.444214 c -0.92274,0.70724 -1.41419,0.842243 -2.054673,0.564428 z m 0.972523,-1.789221 c 0.26956,-0.100856 0.74384,-0.336639 1.05394,-0.523961 l 0.56382,-0.340585 0.0258,-0.677251 0.0258,-0.677251 -0.28954,0.06088 c -0.58717,0.123468 -2.149518,0.759699 -2.600397,1.058957 -0.549872,0.364962 -0.709209,0.638839 -0.560959,0.964212 0.198113,0.434808 0.848471,0.48409 1.781506,0.134996 z m 35.85299,1.675164 c -0.65101,-0.421603 -1.82136,-1.743718 -2.19924,-2.48442 -0.0932,-0.182733 -0.1695,-0.469229 -0.1695,-0.636657 0,-0.805052 1.47148,-1.460875 4.20007,-1.871925 l 0.99144,-0.149357 0.0476,-0.189465 c 0.0926,-0.368792 -0.0846,-0.778399 -0.40801,-0.943221 -0.37694,-0.192121 -0.68111,-0.157374 -2.28173,0.260653 -0.65271,0.170467 -1.28565,0.328159 -1.40652,0.350425 l -0.21977,0.04049 -0.41313,-0.707425 c -0.22721,-0.389085 -0.38026,-0.727739 -0.34008,-0.752567 0.12352,-0.07634 3.10654,-0.659008 3.68156,-0.719109 l 0.5418,-0.05663 0.37471,0.245232 c 0.62907,0.411703 2.23096,2.092126 2.35625,2.471756 0.0837,0.253528 0.0984,0.945174 0.0603,2.8294 -0.0277,1.371615 -0.0673,2.510729 -0.088,2.531365 -0.0317,0.03169 -1.27376,-0.230932 -1.75124,-0.370273 -0.10065,-0.02937 -0.1577,-0.155617 -0.17582,-0.389059 l -0.0268,-0.345578 -0.43954,0.354337 c -1.018,0.820673 -1.66198,0.967447 -2.33432,0.532033 z m 1.1561,-1.675164 c 0.26956,-0.100856 0.74383,-0.336639 1.05393,-0.523961 l 0.56383,-0.340585 0.0257,-0.669423 0.0257,-0.669423 h -0.12705 c -0.23114,0 -1.93715,0.626205 -2.45616,0.901551 -1.01166,0.536707 -1.23448,1.205011 -0.50095,1.502486 0.22012,0.08927 0.89653,-0.0066 1.41505,-0.200645 z m 6.40872,1.721278 -0.83512,-0.191124 -0.0226,-5.652928 -0.0226,-5.652928 0.15449,0.04332 c 0.085,0.02383 0.53967,0.12861 1.01044,0.232854 l 0.855955,0.189535 0.0231,2.974015 0.0231,2.974014 1.43625,-1.35468 c 0.78993,-0.745074 1.46243,-1.354904 1.49443,-1.355178 0.17875,-0.0015 1.77238,0.389996 1.77238,0.435444 0,0.02984 -0.63294,0.643829 -1.40652,1.364421 -0.77359,0.720592 -1.40652,1.325503 -1.40652,1.344247 0,0.01874 0.71307,0.920633 1.5846,2.004197 0.87152,1.083565 1.60501,2.023334 1.62997,2.088375 0.0422,0.109994 -0.81585,0.763402 -1.0025,0.763402 -0.0419,0 -0.76414,-0.909044 -1.60491,-2.020098 l -1.52869,-2.020098 -0.50622,0.500941 -0.50622,0.500941 v 1.519157 1.519157 l -0.15384,-0.0079 c -0.0846,-0.0044 -0.52964,-0.09394 -0.988965,-0.199054 z"
       id="path4" /></g></svg>
